<svg xmlns="http://www.w3.org/2000/svg" width="1440" height="900" viewBox="0 0 1440 900" role="img" aria-labelledby="title desc">
  <title id="title">Barcode Reader start page placeholder</title>
  <desc id="desc">Placeholder image for start page screenshot</desc>
  <defs>
    <linearGradient id="bg" x1="0" y1="0" x2="1" y2="1">
      <stop offset="0%" stop-color="#e8f0f7"/>
      <stop offset="100%" stop-color="#f4efe7"/>
    </linearGradient>
  </defs>
  <rect width="1440" height="900" fill="url(#bg)"/>
  <rect x="40" y="32" width="1360" height="58" rx="14" fill="#ffffff" opacity="0.92"/>
  <rect x="72" y="50" width="210" height="20" rx="8" fill="#1f2937" opacity="0.14"/>
  <rect x="1140" y="48" width="110" height="24" rx="12" fill="#dbeafe"/>
  <rect x="1268" y="48" width="110" height="24" rx="12" fill="#e5e7eb"/>

  <rect x="40" y="116" width="870" height="264" rx="22" fill="#ffffff" opacity="0.96"/>
  <rect x="70" y="150" width="380" height="26" rx="9" fill="#111827" opacity="0.12"/>
  <rect x="70" y="192" width="540" height="16" rx="8" fill="#111827" opacity="0.09"/>
  <rect x="70" y="220" width="510" height="16" rx="8" fill="#111827" opacity="0.08"/>
  <rect x="70" y="284" width="260" height="58" rx="14" fill="#2563eb"/>

  <rect x="940" y="116" width="460" height="264" rx="22" fill="#ffffff" opacity="0.96"/>
  <rect x="968" y="150" width="170" height="22" rx="8" fill="#111827" opacity="0.11"/>
  <rect x="968" y="196" width="404" height="152" rx="16" fill="#f8fafc"/>
  <rect x="990" y="218" width="160" height="14" rx="7" fill="#2563eb" opacity="0.25"/>
  <rect x="990" y="246" width="250" height="14" rx="7" fill="#111827" opacity="0.1"/>
  <rect x="990" y="274" width="220" height="14" rx="7" fill="#111827" opacity="0.1"/>
  <rect x="990" y="302" width="275" height="14" rx="7" fill="#111827" opacity="0.1"/>

  <rect x="40" y="408" width="660" height="452" rx="22" fill="#ffffff" opacity="0.96"/>
  <rect x="730" y="408" width="670" height="452" rx="22" fill="#ffffff" opacity="0.96"/>
  <rect x="72" y="446" width="220" height="20" rx="8" fill="#111827" opacity="0.13"/>
  <rect x="760" y="446" width="260" height="20" rx="8" fill="#111827" opacity="0.13"/>

  <rect x="72" y="492" width="596" height="58" rx="14" fill="#f8fafc"/>
  <rect x="88" y="514" width="94" height="14" rx="7" fill="#111827" opacity="0.11"/>
  <rect x="220" y="514" width="300" height="14" rx="7" fill="#111827" opacity="0.12"/>
  <rect x="620" y="511" width="34" height="20" rx="8" fill="#111827" opacity="0.2"/>

  <rect x="760" y="492" width="608" height="36" rx="12" fill="#f8fafc"/>
  <rect x="780" y="503" width="90" height="14" rx="7" fill="#111827" opacity="0.1"/>
  <rect x="904" y="503" width="120" height="14" rx="7" fill="#111827" opacity="0.11"/>
  <rect x="1058" y="503" width="100" height="14" rx="7" fill="#111827" opacity="0.1"/>
  <rect x="1190" y="503" width="154" height="14" rx="7" fill="#111827" opacity="0.11"/>

  <text x="720" y="865" text-anchor="middle" font-family="Arial, Helvetica, sans-serif" font-size="22" fill="#334155">
    Placeholder: замените на реальный скриншот стартовой страницы
  </text>
</svg>

